HIERARCHY
ROOT Hips
{
	OFFSET 51.916401 -10.738015 95.676804
	CHANNELS 6 Xposition Yposition Zposition Xrotation Yrotation Zrotation
	JOINT spine
	{
		OFFSET 0.000000 -0.458069 7.965683
		CHANNELS 3 Xrotation Yrotation Zrotation
		JOINT spine1
		{
			OFFSET 0.000000 -0.000001 10.243103
			CHANNELS 3 Xrotation Yrotation Zrotation
			JOINT spine2
			{
				OFFSET 0.000000 -0.000002 9.814751
				CHANNELS 3 Xrotation Yrotation Zrotation
				JOINT Neck
				{
					OFFSET 0.000000 -1.201384 25.198601
					CHANNELS 3 Xrotation Yrotation Zrotation
					JOINT Head
					{
						OFFSET 0.000000 -0.000002 7.613144
						CHANNELS 3 Xrotation Yrotation Zrotation
						End Site
						{
							OFFSET 0.000000 6.077327 18.428101
						}
					}
				}
				JOINT RightShoulder
				{
					OFFSET -4.132702 0.575449 10.599205
					CHANNELS 3 Xrotation Yrotation Zrotation
					JOINT RightArm
					{
						OFFSET 0.000000 -0.000002 13.901794
						CHANNELS 3 Xrotation Yrotation Zrotation
						JOINT RightArmRoll
						{
							OFFSET 0.000000 -0.000002 7.017883
							CHANNELS 3 Xrotation Yrotation Zrotation
							JOINT RightForeArm
							{
								OFFSET 0.000000 -0.000003 20.440598
								CHANNELS 3 Xrotation Yrotation Zrotation
								JOINT RightForeArmRoll
								{
									OFFSET 0.000000 -0.000001 7.875153
									CHANNELS 3 Xrotation Yrotation Zrotation
									JOINT RightHand
									{
										OFFSET 0.000000 -0.000003 15.803696
										CHANNELS 3 Xrotation Yrotation Zrotation
										End Site
										{
											OFFSET 0.000000 0.000000 0.100006
										}
									}
								}
							}
						}
					}
				}
				JOINT LeftShoulder
				{
					OFFSET 4.132702 0.575449 10.599205
					CHANNELS 3 Xrotation Yrotation Zrotation
					JOINT LeftArm
					{
						OFFSET 0.000000 -0.000002 13.901794
						CHANNELS 3 Xrotation Yrotation Zrotation
						JOINT LeftArmRoll
						{
							OFFSET 0.000000 -0.000002 7.017883
							CHANNELS 3 Xrotation Yrotation Zrotation
							JOINT LeftForeArm
							{
								OFFSET 0.000000 -0.000003 20.440598
								CHANNELS 3 Xrotation Yrotation Zrotation
								JOINT LeftForeArmRoll
								{
									OFFSET 0.000000 -0.000001 7.875153
									CHANNELS 3 Xrotation Yrotation Zrotation
									JOINT LeftHand
									{
										OFFSET 0.000000 -0.000003 15.803696
										CHANNELS 3 Xrotation Yrotation Zrotation
										End Site
										{
											OFFSET 0.000000 0.000000 0.100006
										}
									}
								}
							}
						}
					}
				}
			}
		}
	}
	JOINT RightUpLeg
	{
		OFFSET -7.060482 1.086100 -1.294701
		CHANNELS 3 Xrotation Yrotation Zrotation
		JOINT RightUpLegRoll
		{
			OFFSET 0.000000 -0.000003 18.530800
			CHANNELS 3 Xrotation Yrotation Zrotation
			JOINT RightLeg
			{
				OFFSET 0.000000 0.000004 -22.947601
				CHANNELS 3 Xrotation Yrotation Zrotation
				JOINT RightLegRoll
				{
					OFFSET 0.000000 -0.000004 23.022598
					CHANNELS 3 Xrotation Yrotation Zrotation
					JOINT RightFoot
					{
						OFFSET 0.000000 -0.000004 19.162506
						CHANNELS 3 Xrotation Yrotation Zrotation
						JOINT RightToeBase
						{
							OFFSET 0.000000 -0.000002 16.018799
							CHANNELS 3 Xrotation Yrotation Zrotation
							End Site
							{
								OFFSET 0.006790 0.894204 7.757828
							}
						}
					}
				}
			}
		}
	}
	JOINT LeftUpLeg
	{
		OFFSET 7.060482 1.086100 -1.294701
		CHANNELS 3 Xrotation Yrotation Zrotation
		JOINT LeftUpLegRoll
		{
			OFFSET 0.000000 -0.000003 18.530899
			CHANNELS 3 Xrotation Yrotation Zrotation
			JOINT LeftLeg
			{
				OFFSET 0.000000 -0.000004 22.947502
				CHANNELS 3 Xrotation Yrotation Zrotation
				JOINT LeftLegRoll
				{
					OFFSET 0.000000 -0.000004 23.235504
					CHANNELS 3 Xrotation Yrotation Zrotation
					JOINT LeftFoot
					{
						OFFSET 0.000000 -0.000003 18.949600
						CHANNELS 3 Xrotation Yrotation Zrotation
						JOINT LeftToeBase
						{
							OFFSET 0.000000 -0.000003 16.018799
							CHANNELS 3 Xrotation Yrotation Zrotation
							End Site
							{
								OFFSET -0.030430 0.894206 7.757812
							}
						}
					}
				}
			}
		}
	}
}
MOTION
Frames: 8
Frame Time: 0.041667
51.224594 -10.670015 95.738602 -5.661566 1.114447 3.950695 -1.978475 -0.340858 0.219416 0.047871 -0.679544 0.424756 1.692968 -0.674333 0.433008 33.602147 2.598812 -2.489412 -5.161577 -5.397323 -1.813424 4.677011 -61.334136 5.074715 -63.979762 -144.187875 -94.287872 0.000001 -0.000001 0.000002 93.664139 2.623861 -8.155943 0.000002 -0.000000 -3.002987 -5.000172 -7.999769 0.000032 -2.579797 63.436557 3.532238 -67.209430 148.163851 102.924435 0.000001 -0.000001 0.000001 89.683560 -0.875541 6.846882 -0.000001 -0.000007 3.005031 -5.000142 8.000324 0.000040 8.027554 -177.988883 -2.556769 -179.999991 0.000004 -1.268006 176.785896 -2.107684 -0.513330 -0.000003 0.000001 0.036269 69.159941 6.960278 1.944790 25.479759 -7.355132 0.034341 2.315853 171.452884 -1.290785 -0.000004 -0.000005 -1.102341 -7.788673 1.599285 0.493482 -0.000002 0.000004 0.001778 69.561577 -6.262737 -3.744604 25.456959 7.355613 -0.000001 
51.230198 -10.666019 95.740807 -5.668705 1.109965 3.939450 -1.975236 -0.339714 0.220077 0.053643 -0.677193 0.426069 1.698737 -0.671966 0.434295 33.581622 2.602156 -2.490587 -5.145745 -5.403305 -1.813530 4.664888 -61.295484 5.066507 -64.057291 -144.156374 -94.263229 0.000000 -0.000001 0.000002 93.642078 2.621483 -8.133358 0.000001 -0.000004 -3.002991 -5.000173 -7.999764 0.000034 -2.593586 63.426708 3.547023 -67.386298 148.104278 103.010106 0.000001 -0.000001 0.000002 89.681388 -0.874633 6.845362 -0.000002 -0.000011 3.005028 -5.000142 8.000329 0.000040 8.028285 -177.979977 -2.546829 -179.999991 0.000005 -1.268006 176.783519 -2.113666 -0.513754 -0.000003 0.000001 0.036269 69.159422 6.960288 1.944825 25.478747 -7.355130 0.032872 2.326069 171.458935 -1.288409 -0.000005 -0.000005 -1.102980 -7.781987 1.598450 0.492982 -0.000002 0.000004 0.001814 69.558455 -6.263874 -3.741385 25.456957 7.355613 0.000000 
51.227997 -10.663315 95.737099 -5.677920 1.105787 3.928575 -1.971473 -0.338460 0.221044 0.060671 -0.674768 0.428114 1.705767 -0.669517 0.436310 33.559110 2.599673 -2.492179 -5.129562 -5.403990 -1.815244 4.650472 -61.261524 5.054959 -64.146480 -144.120229 -94.248729 0.000001 -0.000001 0.000003 93.622844 2.622646 -8.113948 0.000004 -0.000003 -3.002989 -5.000169 -7.999769 0.000032 -2.603115 63.409229 3.556159 -67.559723 148.043490 103.082444 -0.000001 -0.000004 -0.000002 89.679673 -0.875299 6.842456 -0.000000 -0.000010 3.005031 -5.000136 8.000327 0.000041 8.031839 -177.972081 -2.537396 -179.999991 0.000005 -1.268006 176.782084 -2.119651 -0.513146 -0.000003 0.000001 0.036270 69.158882 6.960260 1.944853 25.477640 -7.355134 0.031219 2.337815 171.465001 -1.286531 -0.000005 -0.000005 -1.103610 -7.776299 1.597412 0.492473 -0.000002 0.000004 0.001842 69.555436 -6.265017 -3.738162 25.456959 7.355614 -0.000000 
51.231995 -10.665415 95.741600 -5.689643 1.101795 3.917717 -1.967013 -0.337154 0.222387 0.069285 -0.672382 0.431027 1.714388 -0.667097 0.439188 33.534299 2.593744 -2.494582 -5.115435 -5.402953 -1.818491 4.635148 -61.230085 5.041972 -64.245845 -144.080177 -94.242035 0.000000 -0.000000 0.000000 93.605427 2.627078 -8.096698 0.000003 -0.000005 -3.002990 -5.000170 -7.999771 0.000034 -2.609879 63.385788 3.561511 -67.729583 147.983275 103.143247 -0.000002 0.000001 -0.000003 89.677577 -0.876971 6.838327 0.000001 -0.000011 3.005031 -5.000140 8.000332 0.000041 8.038332 -177.965182 -2.528119 -179.999991 0.000005 -1.268006 176.781333 -2.125650 -0.513512 -0.000004 0.000001 0.036270 69.158261 6.960301 1.944900 25.476425 -7.355135 0.029350 2.351574 171.471079 -1.285160 -0.000005 -0.000005 -1.104260 -7.771434 1.596171 0.491942 -0.000002 0.000004 0.001862 69.552424 -6.266160 -3.734937 25.456957 7.355612 -0.000001 
51.231392 -10.661619 95.744301 -5.703520 1.097977 3.906844 -1.961936 -0.335808 0.224053 0.079266 -0.670031 0.434683 1.724367 -0.664707 0.442810 33.507388 2.584727 -2.497663 -5.103049 -5.400198 -1.823081 4.618912 -61.200981 5.027581 -64.354520 -144.036477 -94.242253 0.000000 -0.000000 0.000002 93.590066 2.634520 -8.080587 0.000002 -0.000001 -3.002988 -5.000171 -7.999775 0.000032 -2.614314 63.357197 3.563650 -67.897032 147.922882 103.194343 0.000000 -0.000002 0.000003 89.675671 -0.879693 6.833216 0.000000 -0.000011 3.005028 -5.000141 8.000322 0.000040 8.047370 -177.957300 -2.518738 -179.999991 0.000005 -1.268006 176.781251 -2.130642 -0.513795 -0.000003 0.000001 0.036272 69.157632 6.960306 1.944941 25.475012 -7.355137 0.027280 2.367021 171.477172 -1.284213 -0.000004 -0.000005 -1.104929 -7.767317 1.594741 0.491389 -0.000002 0.000004 0.001874 69.549289 -6.267298 -3.731822 25.456953 7.355613 -0.000000 
51.223492 -10.647618 95.743698 -5.719165 1.094335 3.895933 -1.956352 -0.334429 0.225991 0.090398 -0.667718 0.438967 1.735497 -0.662347 0.447060 33.478698 2.572985 -2.501302 -5.092014 -5.395736 -1.828799 4.601807 -61.174118 5.011849 -64.472362 -143.988966 -94.249336 0.000002 -0.000002 0.000001 93.576843 2.644582 -8.066588 -0.000001 -0.000001 -3.002990 -5.000173 -7.999775 0.000031 -2.616849 63.324029 3.563162 -68.063457 147.861725 103.237544 -0.000001 -0.000001 0.000000 89.674455 -0.883518 6.827493 -0.000001 -0.000008 3.005030 -5.000142 8.000327 0.000041 8.058539 -177.951413 -2.509689 -179.999991 0.000004 -1.268006 176.781756 -2.136630 -0.514112 -0.000003 0.000001 0.036272 69.157093 6.960278 1.944968 25.473592 -7.355133 0.025077 2.383868 171.482267 -1.283650 -0.000004 -0.000005 -1.105621 -7.763870 1.593149 0.490818 -0.000002 0.000004 0.001879 69.546099 -6.268533 -3.728424 25.456957 7.355613 0.000000 
51.225895 -10.647316 95.744606 -5.736222 1.090839 3.884961 -1.950365 -0.333025 0.228150 0.102456 -0.665442 0.443761 1.747557 -0.660018 0.451817 33.448437 2.558858 -2.505356 -5.081986 -5.389576 -1.835442 4.583817 -61.149393 4.994787 -64.597245 -143.938874 -94.260231 0.000000 0.000001 0.000000 93.566208 2.657041 -8.054729 0.000001 -0.000002 -3.002998 -5.000171 -7.999773 0.000034 -2.617956 63.287174 3.560644 -68.229546 147.799515 103.273512 0.000001 0.000001 0.000001 89.674428 -0.888612 6.821577 0.000000 -0.000009 3.005029 -5.000139 8.000329 0.000038 8.071442 -177.944542 -2.500575 -179.999991 0.000005 -1.268006 176.782808 -2.140630 -0.513301 -0.000003 0.000001 0.036272 69.156464 6.960283 1.945008 25.472079 -7.355135 0.022750 2.401789 171.488374 -1.283305 -0.000005 -0.000005 -1.106320 -7.761002 1.591406 0.490235 -0.000002 0.000004 0.001878 69.542889 -6.269735 -3.725223 25.456957 7.355613 0.000000 
51.226498 -10.644921 95.745705 -5.754300 1.087492 3.873901 -1.944054 -0.331606 0.230480 0.115225 -0.663201 0.448947 1.760326 -0.657720 0.456962 33.416714 2.542717 -2.509695 -5.072599 -5.381723 -1.842790 4.564999 -61.126484 4.976467 -64.730256 -143.885066 -94.277320 -0.000001 -0.000000 0.000001 93.558210 2.671603 -8.043996 0.000002 -0.000005 -3.002999 -5.000171 -7.999769 0.000035 -2.618054 63.247360 3.556676 -68.396415 147.735448 103.303982 -0.000002 -0.000000 0.000001 89.676081 -0.895163 6.815675 0.000000 -0.000011 3.005028 -5.000142 8.000330 0.000042 8.085670 -177.938681 -2.491712 -179.999991 0.000005 -1.268006 176.784311 -2.145624 -0.513524 -0.000003 0.000001 0.036272 69.155822 6.960287 1.945050 25.470465 -7.355134 0.020346 2.420471 171.493483 -1.283182 -0.000005 -0.000005 -1.107020 -7.758643 1.589522 0.489641 -0.000002 0.000004 0.001871 69.539788 -6.270939 -3.721917 25.456957 7.355612 0.000000 
